<svg id="Component_220_1" data-name="Component 220 – 1" xmlns="http://www.w3.org/2000/svg" xmlns:xlink="http://www.w3.org/1999/xlink" width="207.877" height="102.803" viewBox="0 0 207.877 102.803">
  <defs>
    <clipPath id="clip-path">
      <rect id="Rectangle_1212" data-name="Rectangle 1212" width="31.4" height="91.302" fill="none"/>
    </clipPath>
  </defs>
  <g id="_3" data-name="3" transform="translate(0 27.694)">
    <path id="Path_1073" data-name="Path 1073" d="M3194.2,2491.492h178.382a.8.8,0,0,1,.87.7h0a.811.811,0,0,1-.87.7H3194.2a.811.811,0,0,1-.87-.7h0a.8.8,0,0,1,.87-.7Zm-13.8,0h6.7a.8.8,0,0,1,.87.7h0a.808.808,0,0,1-.87.7h-6.7a.808.808,0,0,1-.87-.7h0a.8.8,0,0,1,.87-.7Zm199.437,0h6.7a.8.8,0,0,1,.87.7h0a.809.809,0,0,1-.87.7h-6.7a.809.809,0,0,1-.87-.7h0A.8.8,0,0,1,3379.836,2491.492Z" transform="translate(-3179.529 -2424.198)" fill="#1a1a1a" fill-rule="evenodd"/>
    <path id="Path_1074" data-name="Path 1074" d="M3409.231,2082.122h136.618l3.729,24.5-2.52,3.117-67.825,1.679-69.753,0Z" transform="translate(-3359.005 -2053.021)" fill="#111" fill-rule="evenodd"/>
    <path id="Path_1075" data-name="Path 1075" d="M3357.152,2202.653h-6.441c-5.469,0-9.9-6.84-9.9-15.278s4.434-15.277,9.9-15.277h6.441c5.469,0,9.9,6.84,9.9,15.277s-4.434,15.278-9.9,15.278Zm-68.521-30.555c5.469,0,9.9,6.84,9.9,15.277s-4.434,15.278-9.9,15.278h-6.441c-5.469,0-9.9-6.84-9.9-15.278s4.434-15.277,9.9-15.277Z" transform="translate(-3234.839 -2134.603)" fill="#111" fill-rule="evenodd"/>
    <g id="Group_870" data-name="Group 870" transform="translate(91.065 38.076)">
      <path id="Path_1076" data-name="Path 1076" d="M3862.988,2178.328h-6.318c-5.365,0-9.715,6.71-9.715,14.987s4.349,14.987,9.715,14.987h6.318C3868.83,2208.3,3869.022,2178.328,3862.988,2178.328Z" transform="translate(-3846.955 -2178.328)" fill="#111" fill-rule="evenodd"/>
      <path id="Path_1077" data-name="Path 1077" d="M3924.389,2208.3c5.351,0,9.715-6.733,9.715-14.987s-4.364-14.987-9.715-14.987-9.714,6.733-9.714,14.987S3919.038,2208.3,3924.389,2208.3Z" transform="translate(-3908.356 -2178.328)" fill="#1a1a1a" fill-rule="evenodd"/>
      <path id="Path_1078" data-name="Path 1078" d="M3952.37,2247.026c3.765,0,6.836-4.737,6.836-10.545s-3.071-10.545-6.836-10.545-6.835,4.737-6.835,10.545S3948.6,2247.026,3952.37,2247.026Z" transform="translate(-3936.337 -2221.494)" fill="#e5e5e5" fill-rule="evenodd"/>
      <path id="Path_1079" data-name="Path 1079" d="M3961.82,2260.1c3.229,0,5.863-4.063,5.863-9.046s-2.634-9.044-5.863-9.044-5.863,4.063-5.863,9.044S3958.59,2260.1,3961.82,2260.1Z" transform="translate(-3945.787 -2236.072)" fill="#989898" fill-rule="evenodd"/>
      <path id="Path_1080" data-name="Path 1080" d="M3960.685,2243.829c-2.7.814-4.73,4.478-4.73,8.875s2.035,8.061,4.73,8.875c2.7-.815,4.729-4.479,4.729-8.875S3963.38,2244.644,3960.685,2243.829Z" transform="translate(-3945.785 -2237.718)" fill="#1a1a1a" fill-rule="evenodd"/>
      <path id="Path_1081" data-name="Path 1081" d="M3960.138,2246.448a4.866,4.866,0,0,0-.88.553l.028,4.437a1.781,1.781,0,0,0-.329.135l-2.018-1.327c-.095.226-.18.456-.258.693l1.132,1.908a4.382,4.382,0,0,0-.2.486l-1.368-.666c-.075.436-.137.882-.169,1.341l1.27.619c-.012.148-.018.3-.018.453v.066l-1.285.4.008.206.477,2.305,1.237-.856a3.907,3.907,0,0,0,.24.446l-1.06,2.268a6.761,6.761,0,0,0,.451.954l1.327-2.434a1.973,1.973,0,0,0,.318.187l-.229,3.169-.262.709a6.348,6.348,0,0,0,.649.605l1.607.8a4.25,4.25,0,0,0,.585-.212l-.709-1.906-.229-3.169a2,2,0,0,0,.352-.212l2.092,4.343h.876l-2.258-5.148a3.912,3.912,0,0,0,.214-.4l1.9,1.312.963,1.622h.876l1.016-4.792h-.876l-1.4.445-2.038-.647c0-.022,0-.044,0-.066,0-.174-.008-.344-.022-.511l3.34-1.706.6-1.284h-.876l-3.342,1.707a4.345,4.345,0,0,0-.186-.438l1.4-2.359,1.3-.9-1.784-2.963h-.876l-.157,2.181-1.031,2.769a1.776,1.776,0,0,0-.366-.145Z" transform="translate(-3945.863 -2240.093)" fill="gray" fill-rule="evenodd"/>
      <path id="Path_1082" data-name="Path 1082" d="M3961.1,2243.086a4.163,4.163,0,0,0-.882.314l.025,4.99a1.772,1.772,0,0,0-.33.135l-1.031-2.769-.095-1.317a8.408,8.408,0,0,0-1.769,2.759l.351.242,1.4,2.358a4.291,4.291,0,0,0-.2.486l-2.168-1.052a13.03,13.03,0,0,0-.208,1.323l2.109,1.022q-.018.223-.018.453v.066l-2.038.647-.116-.037a13.093,13.093,0,0,0,.51,3.072l.184-.31,1.9-1.312a3.893,3.893,0,0,0,.24.446l-1.495,3.2a8.569,8.569,0,0,0,.624.993l1.59-3.408a1.931,1.931,0,0,0,.318.187l-.229,3.169-.489,1.315a4.543,4.543,0,0,0,1.876.924,4.088,4.088,0,0,0,1.193-.332l-.709-1.906-.228-3.169a2.029,2.029,0,0,0,.351-.212l2.093,4.343.709-.806-2.092-4.342a3.986,3.986,0,0,0,.214-.4l1.9,1.312.962,1.622a12.424,12.424,0,0,0,1.016-4.792l-1.4.445-2.038-.647v-.066c0-.174-.008-.345-.022-.512l3.34-1.706-.277-1.284-3.342,1.707a4.1,4.1,0,0,0-.186-.437l1.4-2.359,1.3-.9a6.8,6.8,0,0,0-2.66-2.964l-.157,2.181-1.03,2.77a1.769,1.769,0,0,0-.366-.146Z" transform="translate(-3945.942 -2237.044)" fill="#e5e5e5" fill-rule="evenodd"/>
      <path id="Path_1083" data-name="Path 1083" d="M3994.784,2320.973c.742,0,1.347-.928,1.347-2.064s-.6-2.065-1.347-2.065-1.348.927-1.348,2.065S3994.042,2320.973,3994.784,2320.973Z" transform="translate(-3979.769 -2303.92)" fill="#666" fill-rule="evenodd"/>
    </g>
    <path id="Path_1084" data-name="Path 1084" d="M3175.074,1988.534c8.276-3.511,19.621-5.808,33.9-6.947q.616-.564,1.235-1.126v.81l58.217-1.374-30.042,12.785-13.637,26.05-54.517,0c-.643,0-1.654-2.635-.826-4.069l2.069-2.921c.028-1.714.057-2.418.085-4.132l-1.388-4.294a5.06,5.06,0,0,1,.02-2.282l.8-2.451C3170.009,1994.913,3172,1990.615,3175.074,1988.534Z" transform="translate(-3141.266 -1960.334)" fill="#cbcbcb" fill-rule="evenodd"/>
    <path id="Path_1085" data-name="Path 1085" d="M3609.788,1790.34c5.758-5.232,11.734-10.392,18.22-15.465a20.7,20.7,0,0,1,4.286-1.838c9.934-3.117,26.949-2.806,40.012-2.822,18.506-.023,31.136,1.075,46.667,4.54a3.4,3.4,0,0,1,2.21,1.518l9.519,13.751,1.392,1.127-72.36-.007-6.748-.1c-13.711-.534-28.209-.418-43.2.1Z" transform="translate(-3540.85 -1770.213)" fill="#cbcbcb" fill-rule="evenodd"/>
    <path id="Path_1086" data-name="Path 1086" d="M3596.55,1825.827c6.138-5.617,12.5-11.155,19.456-16.591a3.758,3.758,0,0,1,.517-.312c12.291-.57,24.888-.813,36.836-.813.442,0,.6.361.4.637l-11.228,16.228a1.235,1.235,0,0,1-.991.44C3626.442,1825.192,3611.377,1825.093,3596.55,1825.827Z" transform="translate(-3528.848 -1804.574)" fill="#111" fill-rule="evenodd"/>
    <path id="Path_1087" data-name="Path 1087" d="M3624.2,1814.016c.279,0,.521,0,.6-.012,12.2-.564,24.433-.807,36.648-.808l-11.153,16.121a.761.761,0,0,1-.594.236c-14.565-.215-29.154-.323-43.709.35l-.454-.014C3611.578,1824.384,3617.758,1819.054,3624.2,1814.016Z" transform="translate(-3536.997 -1809.186)" fill="#333" fill-rule="evenodd"/>
    <path id="Path_1088" data-name="Path 1088" d="M3656.22,1892.445l-5.926,8.566a.761.761,0,0,1-.594.235c-14.565-.215-29.153-.323-43.709.35l-.454-.014q2.093-1.907,4.21-3.785a145.544,145.544,0,0,1,46.473-5.351Z" transform="translate(-3536.997 -1880.879)" fill="#171717" fill-rule="evenodd"/>
    <g id="Group_871" data-name="Group 871" transform="translate(159.837 38.076)">
      <path id="Path_1089" data-name="Path 1089" d="M4600.106,2208.3h-6.318c-5.365,0-9.715-6.71-9.715-14.987s4.35-14.987,9.715-14.987h6.318C4605.949,2178.328,4606.14,2208.3,4600.106,2208.3Z" transform="translate(-4584.073 -2178.328)" fill="#111" fill-rule="evenodd"/>
      <ellipse id="Ellipse_30" data-name="Ellipse 30" cx="9.715" cy="14.987" rx="9.715" ry="14.987" transform="translate(6.319)" fill="#1a1a1a"/>
      <ellipse id="Ellipse_31" data-name="Ellipse 31" cx="6.835" cy="10.545" rx="6.835" ry="10.545" transform="translate(9.198 4.441)" fill="#e5e5e5"/>
      <ellipse id="Ellipse_32" data-name="Ellipse 32" cx="5.864" cy="9.045" rx="5.864" ry="9.045" transform="translate(10.17 5.941)" fill="#989898"/>
      <path id="Path_1090" data-name="Path 1090" d="M4697.806,2261.58c-2.7-.815-4.729-4.478-4.729-8.875s2.033-8.061,4.729-8.876c2.695.815,4.729,4.478,4.729,8.876S4700.5,2260.766,4697.806,2261.58Z" transform="translate(-4682.906 -2237.718)" fill="#1a1a1a" fill-rule="evenodd"/>
      <path id="Path_1091" data-name="Path 1091" d="M4697.258,2261.721a4.851,4.851,0,0,1-.88-.553l.029-4.437a1.783,1.783,0,0,1-.329-.135l-2.017,1.327c-.1-.226-.182-.456-.259-.693l1.132-1.908a4.393,4.393,0,0,1-.2-.485l-1.367.666c-.075-.436-.138-.882-.17-1.342l1.271-.619c-.012-.149-.018-.3-.018-.453,0-.022,0-.044,0-.066l-1.285-.4.008-.206.477-2.305,1.237.855a3.833,3.833,0,0,1,.239-.446l-1.06-2.269a6.825,6.825,0,0,1,.451-.953l1.328,2.433a2.025,2.025,0,0,1,.317-.187l-.228-3.169-.262-.709a6.376,6.376,0,0,1,.649-.606l1.607-.8a4.176,4.176,0,0,1,.585.212l-.709,1.906-.228,3.168a2.086,2.086,0,0,1,.352.212l2.092-4.343h.876l-2.259,5.148a3.989,3.989,0,0,1,.215.4l1.9-1.312.962-1.622h.876l1.016,4.792h-.876l-1.4-.445-2.037.646v.067c0,.174-.007.344-.023.512l3.34,1.706.6,1.284h-.876l-3.342-1.708a4.276,4.276,0,0,1-.187.438l1.4,2.359,1.3.9-1.783,2.964h-.876l-.158-2.181-1.03-2.769a1.8,1.8,0,0,1-.366.145Z" transform="translate(-4682.983 -2238.104)" fill="gray" fill-rule="evenodd"/>
      <path id="Path_1092" data-name="Path 1092" d="M4698.22,2260.863a4.186,4.186,0,0,1-.882-.313l.025-4.991a1.82,1.82,0,0,1-.329-.134l-1.031,2.769-.095,1.317a8.418,8.418,0,0,1-1.769-2.759l.351-.243,1.4-2.358a4.417,4.417,0,0,1-.2-.486l-2.168,1.051a13.327,13.327,0,0,1-.208-1.323l2.109-1.023c-.011-.149-.018-.3-.018-.453,0-.022,0-.044,0-.066l-2.037-.647-.116.037a13.045,13.045,0,0,1,.51-3.072l.184.31,1.9,1.312a3.745,3.745,0,0,1,.24-.446l-1.5-3.2a8.476,8.476,0,0,1,.624-.992l1.59,3.408a2,2,0,0,1,.317-.187l-.228-3.169-.489-1.315a4.544,4.544,0,0,1,1.875-.924,4.07,4.07,0,0,1,1.194.332l-.709,1.906-.229,3.169a2.021,2.021,0,0,1,.352.212l2.092-4.343.71.806-2.092,4.342a4.161,4.161,0,0,1,.215.4l1.9-1.312.962-1.622a12.412,12.412,0,0,1,1.016,4.792l-1.4-.445-2.038.647v.066c0,.174-.007.344-.022.512l3.34,1.706-.277,1.284-3.342-1.708a4.276,4.276,0,0,1-.187.438l1.4,2.359,1.3.9a6.8,6.8,0,0,1-2.66,2.964l-.157-2.181-1.03-2.769a1.787,1.787,0,0,1-.366.145Z" transform="translate(-4683.063 -2236.932)" fill="#e5e5e5" fill-rule="evenodd"/>
      <path id="Path_1093" data-name="Path 1093" d="M4731.9,2320.946c.742,0,1.347-.927,1.347-2.065s-.6-2.064-1.347-2.064-1.348.927-1.348,2.064S4731.16,2320.946,4731.9,2320.946Z" transform="translate(-4716.888 -2303.896)" fill="#666" fill-rule="evenodd"/>
    </g>
    <path id="Path_1094" data-name="Path 1094" d="M3521.419,1993.854l-.193.1,5.4,5.074-7.792,7.3a30.377,30.377,0,0,0,2.307,8.381c3.77,3.535,4.36,1.833,6.756,6.415h14.386l16.2-22.395,26.911-6.809,66.728-6.237-3.887-3.146-76.75,1.036C3552.879,1985.707,3535,1988.193,3521.419,1993.854Z" transform="translate(-3458.385 -1962.736)" fill="#cbcbcb" fill-rule="evenodd"/>
    <path id="Path_1095" data-name="Path 1095" d="M3847.872,2016.262l-.411,6.5a51.267,51.267,0,0,1,1.892,10.412,4.785,4.785,0,0,1,1.413,3.028l-.964,5.638.739,2.8a4.857,4.857,0,0,1-1.343,3.061l-2.853.774-3.469,1.354-.508.123-.9-2.628c.68-7.165-2.918-18.271-11.3-18.271-6.5,0-11.77,8.173-11.77,18.256a28.494,28.494,0,0,0,.242,3.679l-.737.709h-44.965c-.5-.24-.376-.138-.577-.554a27.958,27.958,0,0,0,.262-3.836c0-11.547-4.795-19.264-11.3-19.264s-11.77,9.181-11.77,19.264a28.27,28.27,0,0,0,.219,3.515c-.32.636-.208.388-.84.875h-11.78a9.088,9.088,0,0,0,.32-3.782,39,39,0,0,1-1.19-4.219l.468-2.175-2.03-7.355c6.54-2.356,3.063-2.632,7.331-7.538l2.225-5.671a201.2,201.2,0,0,1,25.437-2.579C3788.463,2017.347,3821.542,2018.032,3847.872,2016.262Z" transform="translate(-3654.133 -1993.306)" fill="#b2b2b2" fill-rule="evenodd"/>
    <path id="Path_1096" data-name="Path 1096" d="M3888.453,2144.562h-1.206c-.5-.241-.375-.139-.577-.554a28.083,28.083,0,0,0,.261-3.836c0-11.547-4.795-18.256-11.3-18.256s-11.77,8.173-11.77,18.256a28.222,28.222,0,0,0,.219,3.515.8.8,0,0,1-.839.875H3860.8v-7.393c0-10.213,6.544-18.493,14.618-18.493s13.6,8.28,13.6,18.493C3888.953,2139.958,3888.6,2142.4,3888.453,2144.562Z" transform="translate(-3768.439 -2086.162)" fill="#c1c1c1" fill-rule="evenodd"/>
    <path id="Path_1097" data-name="Path 1097" d="M4147.906,1797.188c1.915-3.2,5.046-5.721,11.986-6.127,14.107-.528,25.011,1.513,38.465,4.441a1.747,1.747,0,0,1,1.217.777l8.077,11.794a.536.536,0,0,1-.384.885l-13.237,1.026-53.451-.014a.5.5,0,0,1-.378-.8Z" transform="translate(-4021.693 -1789.041)" fill="#111" fill-rule="evenodd"/>
    <path id="Path_1098" data-name="Path 1098" d="M4145.213,1814.05a.194.194,0,0,0-.025.084l26.691.007a89.935,89.935,0,0,0-2.84-18.047h-.2c-1.423,0-2.887.027-4.316.08-4.833.283-9.013,1.562-11.615,5.91l-7.7,11.966Zm31.839.093,11.8,0a76.232,76.232,0,0,0-4.382-16.977c-3.92-.531-7.814-.869-11.722-1.006a91.906,91.906,0,0,1,4.3,17.98Zm12.645,0a74.094,74.094,0,0,0-4.252-16.841q.879.126,1.756.262a83.641,83.641,0,0,1,7.882,16.58Zm8.761,0h.158l13.2-1.023a.234.234,0,0,0,.1-.051.4.4,0,0,0-.049-.095l-8.077-11.794a1.292,1.292,0,0,0-.926-.582c-4.2-.913-8.4-1.8-12.634-2.538A91.454,91.454,0,0,1,4198.458,1814.149Z" transform="translate(-4026.299 -1793.679)" fill="#333" fill-rule="evenodd"/>
    <path id="Path_1099" data-name="Path 1099" d="M4145.213,1910.455a.2.2,0,0,0-.025.084l26.691.007c-.163-2.548-.419-5.241-.794-7.949-7.625.28-14.979.886-21.959,1.776l-3.912,6.082Zm35.625-8.036q3.259,0,6.463.08a59.607,59.607,0,0,1,1.553,8.052l-11.8,0c-.374-2.606-.862-5.35-1.466-8.076q2.607-.051,5.251-.053Zm7.361.1a61.642,61.642,0,0,1,1.5,8.031h5.386a76.507,76.507,0,0,0-3.2-7.9q-1.833-.076-3.686-.13Zm6.795.277q6.7.36,13.079,1.051l3.792,5.538a.4.4,0,0,1,.049.095.236.236,0,0,1-.1.051l-13.2,1.022h-.158A74.084,74.084,0,0,0,4194.993,1902.8Z" transform="translate(-4026.299 -1890.084)" fill="#171717" fill-rule="evenodd"/>
    <path id="Path_1100" data-name="Path 1100" d="M3630.567,2060.349l-12.927,2.013-11.868,1.848c-.529.082-.547.553-.255.779l3.244,2.509a1.85,1.85,0,0,0,1.292.334l14.679-1.249,6.351-5.392C3631.573,2060.774,3631.3,2060.188,3630.567,2060.349Z" transform="translate(-3536.807 -2033.255)" fill="#5e5e5e" fill-rule="evenodd"/>
    <path id="Path_1101" data-name="Path 1101" d="M3647.679,2072.2l12.174-1.036,6.351-5.392a.656.656,0,0,0,.244-.4l-10.074,1.569-11.868,1.848c-.529.082-.546.553-.255.779l3.244,2.509A1.492,1.492,0,0,0,3647.679,2072.2Z" transform="translate(-3571.927 -2037.837)" fill="#383838" fill-rule="evenodd"/>
    <path id="Path_1102" data-name="Path 1102" d="M3244.4,2103.747h-25.85c-.738,0-1.2.043-1.577.616l-2.281,3.507a1.6,1.6,0,0,0-.06,1.587l2.9,6.306a2.29,2.29,0,0,0,1.4,1.2l9.519,2.384a4.058,4.058,0,0,0,1.584,0l11.75-2.384a4.284,4.284,0,0,0,2.275-1.2l6.986-6.169a1.145,1.145,0,0,0-.006-1.718l-4.775-3.589A3.041,3.041,0,0,0,3244.4,2103.747Z" transform="translate(-3182.397 -2072.629)" fill="#292929" fill-rule="evenodd"/>
    <path id="Path_1103" data-name="Path 1103" d="M3266.764,2103.747h-23.583c-.718,0-1.176.053-1.543.616l-2.281,3.507a1.607,1.607,0,0,0-.06,1.587l2.9,6.306a2.293,2.293,0,0,0,1.4,1.2l9.2,2.3,11.354-2.3a4.285,4.285,0,0,0,2.275-1.2l6.986-6.168a1.145,1.145,0,0,0-.006-1.718l-4.775-3.589A3.043,3.043,0,0,0,3266.764,2103.747Z" transform="translate(-3204.765 -2072.629)" fill="#111" fill-rule="evenodd"/>
    <path id="Path_1104" data-name="Path 1104" d="M3639.61,2212.508l-1.145-5.948a.832.832,0,0,0-1.188-.6l-7.445,2.814a2.151,2.151,0,0,0-1.128.915l-1.778,2.956a.632.632,0,0,0,.522.972l11.358-.146A.858.858,0,0,0,3639.61,2212.508Z" transform="translate(-3556.306 -2165.236)" fill="#1a1a1a" fill-rule="evenodd"/>
    <path id="Path_1105" data-name="Path 1105" d="M3658.252,2216.315l-1.145-5.948a.89.89,0,0,0-.108-.285l-6.607,2.5a2.15,2.15,0,0,0-1.128.914l-1.778,2.956a.646.646,0,0,0,.343.95l9.619-.123A.859.859,0,0,0,3658.252,2216.315Z" transform="translate(-3574.948 -2169.042)" fill="#111" fill-rule="evenodd"/>
    <path id="Path_1106" data-name="Path 1106" d="M3243.2,2316.55h-27.312a1.3,1.3,0,0,0-1.235.835l-1.244,2.631a.585.585,0,0,0,.51.85h37.86c.687,0,.831-.864.145-1.144L3245,2316.9A5.494,5.494,0,0,0,3243.2,2316.55Z" transform="translate(-3181.396 -2265.578)" fill="#333" fill-rule="evenodd"/>
    <path id="Path_1107" data-name="Path 1107" d="M3265.563,2316.55h-25.01a1.305,1.305,0,0,0-1.235.835l-1.244,2.631a.585.585,0,0,0,.51.85h35.558c.687,0,.831-.864.145-1.144l-6.921-2.827A5.492,5.492,0,0,0,3265.563,2316.55Z" transform="translate(-3203.763 -2265.578)" fill="#111" fill-rule="evenodd"/>
    <path id="Path_1108" data-name="Path 1108" d="M3698.774,2228.259l-3.064.917a.493.493,0,0,0-.312.615l.582,2.595a.527.527,0,0,0,.548.443l3.283-.213a.478.478,0,0,0,.416-.592l-.717-3.377A.542.542,0,0,0,3698.774,2228.259Z" transform="translate(-3618.459 -2185.496)" fill="#e5e5e5" fill-rule="evenodd"/>
    <path id="Path_1109" data-name="Path 1109" d="M4889.181,1985.692c-.417-1.288-1.937-2.276-3.887-3.146a8.811,8.811,0,0,0-2.108,3.5c1.091,2.182,3.436,4.147,5.584,6.147A30.642,30.642,0,0,0,4889.181,1985.692Z" transform="translate(-4695.442 -1962.736)" fill="#db0000" fill-rule="evenodd"/>
    <path id="Path_1110" data-name="Path 1110" d="M3361.782,2172.3l1.413-.525h3.352l1.412.525v1.37l-3.088.621-2.8-.051Z" transform="translate(-3315.984 -2134.311)" fill="#1a1a1a" fill-rule="evenodd"/>
    <path id="Path_1111" data-name="Path 1111" d="M3346,2172.3l1.412-.525h3.352l1.411.525v1.37l-3.087.621-3.088-.621Z" transform="translate(-3301.676 -2134.311)" fill="#b2b2b2" fill-rule="evenodd"/>
    <path id="Path_1112" data-name="Path 1112" d="M4237.122,2224.967c0-.85-1.1-1.775-2.5-1.74l-28.4.707a3.958,3.958,0,0,1-3.863-2.83l-1.8-4.634-.637-1.625,1.55-1.833.268.654c1.834,3.671,4.253,6.708,9.441,6.745l13.125-.367a20.114,20.114,0,0,0,14.9-8.275c3.31-7.793,1.821,4.031.145,11Z" transform="translate(-4075.921 -2168.249)" fill="#c1c1c1" fill-rule="evenodd"/>
    <path id="Path_1113" data-name="Path 1113" d="M3190.2,2098.746l.886.288c.553.179.812.585.567.93l-1.683,2.357a1.135,1.135,0,0,1-1.1.334c-.309-.065-.646-.672-.518-1.3a5.462,5.462,0,0,1,.9-2.113C3189.376,2099.055,3189.865,2098.638,3190.2,2098.746Z" transform="translate(-3158.702 -2068.078)" fill="gray" fill-rule="evenodd"/>
    <path id="Path_1114" data-name="Path 1114" d="M4150.287,1959.629a4.428,4.428,0,0,1-3.628.132,2.06,2.06,0,0,1,.022-1.916l5.28-4.47.908,1.588Z" transform="translate(-4027.427 -1936.285)" fill="#b2b2b2" fill-rule="evenodd"/>
    <path id="Path_1115" data-name="Path 1115" d="M4196.831,1936.638l6.822-.044a1.721,1.721,0,0,1,1.723,1.493l.447,2.718a1.624,1.624,0,0,1-1.493,1.724l-7.074,1.184a1.558,1.558,0,0,1-1.723-1.493l-.195-3.857A1.593,1.593,0,0,1,4196.831,1936.638Z" transform="translate(-4071.768 -1921.071)" fill="#b2b2b2" fill-rule="evenodd"/>
    <path id="Path_1116" data-name="Path 1116" d="M4206.389,1944.371l6.026-.226a1.3,1.3,0,0,1,1.315,1.14l.07.424c.109.667-.482,1.164-1.14,1.315l-6.02,1.372a1.171,1.171,0,0,1-1.315-1.139l-.077-1.57A1.23,1.23,0,0,1,4206.389,1944.371Z" transform="translate(-4080.755 -1927.917)" fill="#cbcbcb" fill-rule="evenodd"/>
    <path id="Path_1117" data-name="Path 1117" d="M4230.423,2087.369c7.792-1.087,40.034-1.657,63.82-1.541a56.848,56.848,0,0,1,1.635,7.853c-7.889-2.978-12.536-2.238-13.862-1.469l-5.677-1.5-5.917,1.988c-4.218-2.964-22.851-2.961-36.749-3.245C4230.3,2089.432,4223.621,2088.319,4230.423,2087.369Z" transform="translate(-4100.916 -2056.368)" fill="#c1c1c1" fill-rule="evenodd"/>
    <path id="Path_1118" data-name="Path 1118" d="M4625.209,2142.639l-.659.211c-.553.148-1.031-.21-1-.906l.085-1.759c.681-7.164-2.919-18.27-11.3-18.27-8.1,0-11.77,11.446-11.77,18.256a30.931,30.931,0,0,0,.242,3.678.681.681,0,0,1-.736.709h-2.694v-7.393c0-10.213,6.544-18.493,14.618-18.493s13.6,8.28,13.6,18.493C4625.561,2139.162,4625.37,2140.976,4625.209,2142.639Z" transform="translate(-4436.306 -2086.162)" fill="#c1c1c1" fill-rule="evenodd"/>
    <path id="Path_1119" data-name="Path 1119" d="M4161.212,2162.016l-1.146-.288a.393.393,0,0,0-.53.486l4.041,10.309a.368.368,0,0,0,.717-.009l.535-1.271a1.251,1.251,0,0,0,.119-1.022l-3.184-7.776A.768.768,0,0,0,4161.212,2162.016Z" transform="translate(-4039.288 -2125.18)" fill="#1a1a1a" fill-rule="evenodd"/>
    <rect id="Rectangle_1181" data-name="Rectangle 1181" width="7.143" height="1.302" rx="0.651" transform="translate(142.202 27.429)" fill="#1a1a1a"/>
    <rect id="Rectangle_1182" data-name="Rectangle 1182" width="7.143" height="1.302" rx="0.651" transform="translate(165.387 27.429)" fill="#1a1a1a"/>
    <path id="Path_1120" data-name="Path 1120" d="M3767.608,2089.437a1.862,1.862,0,1,0-1.862-1.863A1.866,1.866,0,0,0,3767.608,2089.437Z" transform="translate(-3682.258 -2056.277)" fill="#e5e5e5" fill-rule="evenodd"/>
    <path id="Path_1121" data-name="Path 1121" d="M3691.66,2100.285l3.583-.4a.6.6,0,0,1,.683.615v.733a.792.792,0,0,1-.683.768l-3.583.4a.6.6,0,0,1-.683-.615v-.733A.792.792,0,0,1,3691.66,2100.285Z" transform="translate(-3614.465 -2069.12)" fill="#e5e5e5" fill-rule="evenodd"/>
  </g>
  <g id="Group_1977" data-name="Group 1977" transform="translate(-237.341 -248.781)">
    <g id="_7" data-name="7" transform="matrix(0.951, -0.309, 0.309, 0.951, 325.409, 254.66)">
      <ellipse id="Ellipse_30-2" data-name="Ellipse 30" cx="9.511" cy="9.424" rx="9.511" ry="9.424" transform="translate(0 0)" fill="#f67777"/>
      <path id="Path_57" data-name="Path 57" d="M.6,5.447a.3.3,0,0,1-.6,0v-4A.3.3,0,0,1,.561,1.3L1.618,2.815,4.015.1a.3.3,0,0,1,.51.283h0l-1.044,3.5,1.933.168a.3.3,0,0,1,.107.567L2.236,6.458a.3.3,0,1,1-.293-.522l2.45-1.374-1.33-.116h0A.3.3,0,0,1,3,4.434a.3.3,0,0,1-.2-.373l.761-2.547L1.814,3.5h0a.3.3,0,0,1-.469-.027L.6,2.4V5.447Z" transform="translate(8.168 3.074)" fill="#fff"/>
      <path id="Path_58" data-name="Path 58" d="M0,.019A17.987,17.987,0,0,1,3.69.206c.5.1.861.223.982.8a14.869,14.869,0,0,1,.165,1.6H4.374a.2.2,0,0,0,0,.4h.487c0,.057.006.613.009.67l-.5.27.533.522-.323.274-.29.737A1.7,1.7,0,0,0,.9,5.657a1.773,1.773,0,0,0,.012.2H0V2.3l1.767-.071L1.54.632a.216.216,0,0,1,0-.026C1.029.592.5.6,0,.617v-.6ZM6.161,2.7a17.058,17.058,0,0,1,2.6-.556A7.221,7.221,0,0,1,11.888.285q.458-.033.907-.05v.6q-.426.017-.865.048a3.173,3.173,0,0,0-1.159.484c-.268.159-.534.34-.777.52-.175.129-.127.387.127.371.843-.052,1.762-.076,2.675-.083V6.055H9.257a1.649,1.649,0,1,0-3.2,0H5.907a2.141,2.141,0,0,1-.5-.049l-.1-.729.5-.482-.232-.674L6.411,3.5l-.251-.8Zm1.5,1.7a1.25,1.25,0,1,1-1.25,1.25,1.25,1.25,0,0,1,1.25-1.25Zm.389.861a.55.55,0,1,0,.161.389.548.548,0,0,0-.161-.389ZM2.6,4.407a1.25,1.25,0,1,1-1.25,1.25A1.25,1.25,0,0,1,2.6,4.407Zm.389.861a.55.55,0,1,0,.161.389.548.548,0,0,0-.161-.389ZM1.942.622l.226,1.591,1.1-.048c.477-.021.9-.28.858-.757-.012-.15-.046-.431-.157-.5A1.262,1.262,0,0,0,3.578.794,12.252,12.252,0,0,0,1.942.622Z" transform="translate(3.061 8.512)" fill="#fff" fill-rule="evenodd"/>
    </g>
    <g id="_12" data-name="12" transform="translate(279.023 254.702)">
      <g id="_12-2" data-name="12" transform="matrix(0.819, 0.574, -0.574, 0.819, 16.633, 0)">
        <circle id="Ellipse_20" data-name="Ellipse 20" cx="14.499" cy="14.499" r="14.499" transform="translate(0 0)" fill="#ffa32a"/>
        <g id="Group_9" data-name="Group 9" transform="translate(6.647 4.768)">
          <path id="Path_34" data-name="Path 34" d="M1.388,2.384h4.14L5.188.922H1.728l-.34,1.462Zm5.086,0a.463.463,0,0,1,.442.461V4.691a.463.463,0,0,1-.307.435V5.5a.538.538,0,0,1-1.077,0V5.152H1.379V5.5A.538.538,0,0,1,.3,5.5V5.124A.463.463,0,0,1,0,4.691V2.845a.463.463,0,0,1,.442-.461L.831.713A.913.913,0,0,1,1.729,0H5.186a.914.914,0,0,1,.9.713l.388,1.671ZM5.188.918h0Zm-3.46,0h0Zm-.5,2.311a.615.615,0,1,1-.615.615.615.615,0,0,1,.615-.615ZM2.3,4.46V3.23h.461V4.46Zm1.845,0V3.23h.461V4.46Zm-.92,0V3.23h.461V4.46ZM5.688,3.23a.615.615,0,1,1-.615.615.615.615,0,0,1,.615-.615Z" transform="translate(6.618 4.614)" fill="#fff" fill-rule="evenodd"/>
          <path id="Path_35" data-name="Path 35" d="M13.534,17.225H6.62V16.3h6.913v.923ZM4.157,0H15.379a.461.461,0,0,1,.461.461V19.224a.461.461,0,0,1-.461.461H.461A.461.461,0,0,1,0,19.224V4.154A.461.461,0,0,1,.161,3.8L3.833.135A.459.459,0,0,1,4.157,0Zm.459.923,0,3.231a.46.46,0,0,1-.46.46v0H.923V18.763h14V.923ZM1.574,3.692H3.694l0-2.12L1.574,3.692Zm11.959,9.844H6.62v-.923h6.913v.923Zm0,1.845H6.62v-.923h6.913v.923Z" fill="#fff"/>
          <text id="_" data-name="£" transform="translate(1.57 9.953)" fill="#fff" font-size="7" font-family="BrandonText-Bold, Brandon Text" font-weight="700"><tspan x="0" y="7">£</tspan></text>
        </g>
      </g>
    </g>
    <g id="_13" data-name="13" transform="matrix(0.921, 0.391, -0.391, 0.921, 397.088, 260.683)">
      <ellipse id="Ellipse_21" data-name="Ellipse 21" cx="9.869" cy="9.69" rx="9.869" ry="9.69" transform="translate(0 0)" fill="#7191d9"/>
      <g id="Group_10" data-name="Group 10" transform="translate(3.282 5.746)">
        <path id="Path_36" data-name="Path 36" d="M7.425,2.329a1.111,1.111,0,1,0-2.088.556l-2.37.631a1.111,1.111,0,1,0-2.088.557C.58,4.153,0,4.182,0,3.741V1.156a.435.435,0,0,1,.284-.4A19.224,19.224,0,0,1,3.052.016,4.693,4.693,0,0,1,5.33.663C5.744.624,7.458.437,7.668.858A4.453,4.453,0,0,1,8,1.751c.109.379-.295.5-.577.578ZM6.233,2.054a.31.31,0,1,0,.239.03.313.313,0,0,0-.239-.03Zm-.128-.482a.812.812,0,1,0,.994.576.812.812,0,0,0-.994-.576ZM1.775,3.241a.31.31,0,1,0,.239.03.312.312,0,0,0-.239-.03Zm-.128-.482a.812.812,0,1,0,.994.576.812.812,0,0,0-.994-.576ZM.842,1.55.825,1.144a.155.155,0,0,1,.1-.158c.34-.116.53-.179.887-.276l.07-.019.171.86c-.417.114-.546.149-.913.256-.225.065-.3-.056-.3-.257ZM2.272.593l.17.855c.688-.183,1.4-.357,2.049-.488.113-.023.171-.146.078-.22A6.372,6.372,0,0,0,3.931.519,2.068,2.068,0,0,0,3.125.407c-.291.056-.574.117-.853.185Z" transform="translate(0 0)" fill="#fff" fill-rule="evenodd"/>
        <path id="Path_37" data-name="Path 37" d="M9.61.614l.36,2.357a.2.2,0,0,0,.162.18l1.318.219L11.086.614Zm2.47,2.831.806.1a.3.3,0,0,1,.27.3v.526h-.41a.206.206,0,0,0,0,.411h.41v.308h-.41a.206.206,0,0,0,0,.411h.41v.469a.3.3,0,0,1-.3.3H8.942a.308.308,0,0,1-.308-.308V.307A.307.307,0,0,1,8.942,0h3.5a.307.307,0,1,1,0,.614h-.74l.374,2.831Zm-1.26,4.394a.977.977,0,1,0,0,1.381.977.977,0,0,0,0-1.381Zm-7.1,0a.976.976,0,1,0,0,1.381.977.977,0,0,0,0-1.381Zm-.691.074a.617.617,0,1,1-.617.617.617.617,0,0,1,.617-.617Zm0-.976A1.593,1.593,0,1,1,1.435,8.53,1.593,1.593,0,0,1,3.028,6.937Zm7.1.976a.617.617,0,1,1-.617.617.617.617,0,0,1,.617-.617Zm0-.976A1.593,1.593,0,1,1,8.536,8.53a1.593,1.593,0,0,1,1.593-1.593ZM.308,6.783H1.85A2.1,2.1,0,0,0,.921,8.53H.308A.309.309,0,0,1,0,8.222V7.091a.309.309,0,0,1,.308-.308Zm3.9,0H8.951A2.1,2.1,0,0,0,8.022,8.53H5.135a2.1,2.1,0,0,0-.929-1.748Zm7.1,0h1.541a.309.309,0,0,1,.308.308V8.222a.309.309,0,0,1-.308.308h-.612a2.1,2.1,0,0,0-.929-1.748Z" transform="translate(0 0.474)" fill="#fff" fill-rule="evenodd"/>
        <path id="Path_38" data-name="Path 38" d="M.229,1.988,7.63.011a.307.307,0,0,1,.388.3V2.974a.309.309,0,0,1-.308.308H.308A.309.309,0,0,1,0,2.974V2.286a.3.3,0,0,1,.229-.3Zm3.156-.2-.117.883H4.19l.15-1.138-.956.255Zm-.737.883.094-.711L.617,2.523v.143Zm2.335-1.31L4.81,2.666h.922L5.939,1.1l-.956.255Zm1.6-.427L6.352,2.666H7.4V.71l-.82.219Z" transform="translate(0 3.46)" fill="#fff" fill-rule="evenodd"/>
      </g>
    </g>
    <g id="_4" data-name="4" transform="translate(367.397 255.168) rotate(-7)">
      <circle id="Ellipse_27" data-name="Ellipse 27" cx="6.335" cy="6.335" r="6.335" transform="translate(0 0)" fill="#a2bc1e"/>
      <g id="Group_17" data-name="Group 17" transform="translate(2.048 4.424)">
        <path id="Path_51" data-name="Path 51" d="M1.411,0a1.406,1.406,0,0,1,.946.364L1.8.627a.874.874,0,1,0,.11,1.5q.3.091.595.176A1.411,1.411,0,1,1,1.411,0ZM7.278,0a1.411,1.411,0,1,1-1.2,2.28c0-.012,0-.024,0-.037q0-.252,0-.5a1.96,1.96,0,0,1,.32-.707A.874.874,0,1,0,6.572.793q-.023.023-.045.049L6.56.794A4.871,4.871,0,0,1,7.014.236,1.783,1.783,0,0,1,7.278,0Z" transform="translate(0 2.44)" fill="#fff" fill-rule="evenodd"/>
        <path id="Path_52" data-name="Path 52" d="M7.191,2.1c-.191,0-.3,0-.5,0A3.648,3.648,0,0,0,5.175,4.182c0,.134,0,.37,0,.5,0,.168-.067.235-.234.233A14.689,14.689,0,0,1,.783,4.043a.207.207,0,0,1-.017-.387l1.553-.73A3.234,3.234,0,0,0,.159,1.443a.207.207,0,0,1,.014-.406A8.546,8.546,0,0,1,2.141,1.1c.211.051.338.248.474.5a6.324,6.324,0,0,1,1.137.063A1.326,1.326,0,0,1,4.54.989a1.644,1.644,0,0,1,.881.021,2.314,2.314,0,0,1,.428.159A.434.434,0,0,0,5.94.885a1.337,1.337,0,0,0-.53-.7C5.29.092,5.347-.05,5.532.017a2.294,2.294,0,0,1,1.5,1.074H6.6a.034.034,0,0,0-.03.017.033.033,0,0,0,0,.034l.217.36a.454.454,0,0,0,.269.208l.206.061q.015.061.029.126c.021.1-.013.2-.106.2ZM2.6,4.088a3.922,3.922,0,0,0-.136-.776l-1.05.493A11.178,11.178,0,0,0,2.6,4.088ZM4.188,1.747A4.934,4.934,0,0,1,4.74,1.9c.136.047.266.1.39.152a.524.524,0,0,0,.512-.043,2.2,2.2,0,0,1,.268-.151A1.309,1.309,0,0,0,5.829,1.7a.389.389,0,0,0-.177-.174,1.591,1.591,0,0,0-1-.135.863.863,0,0,0-.467.362Z" transform="translate(0.57 0)" fill="#fff"/>
      </g>
    </g>
  </g>
  <g id="Group_1978" data-name="Group 1978" transform="translate(96.487 11.502)">
    <g id="Group_1092" data-name="Group 1092" transform="translate(0 0)" clip-path="url(#clip-path)">
      <path id="Path_1232" data-name="Path 1232" d="M131.978,192.786l-6.137,10.393s.4,1.782,1.386.792,4.157-3.563,4.157-3.563,4.355-9.9.594-7.622" transform="translate(-122.624 -161.072)" fill="#ec9568"/>
      <path id="Path_1233" data-name="Path 1233" d="M166.435,255.856s-.495,1.98-.693,2.97a15.765,15.765,0,0,1-1.584,4.058l-.4.4.693-2.524-.742.891a12.858,12.858,0,0,1-.545,1.683,1.041,1.041,0,0,1-.4.3c-.495.247-.594-.05-.594-.05l.346-1.881.544-1.386-.891.841a8.9,8.9,0,0,1-.347,1.732c-.148.149-.495.05-.495.05l.347-2.227,1.435-2.079s-.3-.149-.643.3a1.385,1.385,0,0,1-.94.643c-.247,0,.693-1.287.94-1.485s.643-1.435,1.732-1.782a11.742,11.742,0,0,1,2.227-.445" transform="translate(-161.337 -214.145)" fill="#ec9568"/>
      <path id="Path_1234" data-name="Path 1234" d="M.858,533.107s.132,1.287.132,1.683-.858,1.518-.924,1.848l-.066.33H6.467s.132-.66-.924-1.518a3.36,3.36,0,0,1-1.518-2.54c-.132-1.089-3.167.2-3.167.2" transform="translate(24.927 -445.666)" fill="#c5e1f9"/>
      <path id="Path_1235" data-name="Path 1235" d="M107.426,533.924l.66,3.563H97.99a1.459,1.459,0,0,1,1.122-1.452c1.188-.33,4.421-1.32,5.279-2.376s3.036.264,3.036.264" transform="translate(-92.661 -446.317)" fill="#c5e1f9"/>
      <path id="Path_1236" data-name="Path 1236" d="M100.6,104.906a6.261,6.261,0,0,1,4.108-1.485c1.93.1-1.138,3.217-2.623,4.207s-2.178.643-2.178.643-.3-2.623.693-3.365" transform="translate(-90.202 -86.556)" fill="#92c65f"/>
      <path id="Path_1237" data-name="Path 1237" d="M92.569,222.883c-1.983,12.689,2.483,50.517,2.78,50.814.676.676,1.849.218,2.565-.021.3-.1,1.485-14.353,1.188-16.827-.431-3.592-1.066-4.318-1.089-6.83-.033-3.6,2.54-8.585,1.881-12.637-.693-4.256-6.984-16.682-7.325-14.5" transform="translate(-83.611 -186.334)" fill="#666ea0"/>
      <path id="Path_1238" data-name="Path 1238" d="M27.283,220.64s2.772,6.038,3.068,8.81c.285,2.657.495,18.51.495,18.51s2.277,5.345,2.97,7.919S35.2,271.914,35.2,271.914l-3.168.2-10.1-37.02-6.929-14.023Z" transform="translate(-6.249 -184.67)" fill="#7d86c3"/>
      <path id="Path_1239" data-name="Path 1239" d="M17.337,225.139l2.812,27.081s3.366,8.288,5.065,23.579" transform="translate(3.359 -188.436)" fill="none" stroke="#666ea0" stroke-miterlimit="10" stroke-width="1"/>
      <path id="Path_1240" data-name="Path 1240" d="M66.069,102.363s2.326,2.277,2.029,4.454-1.419,3.118-1.815,5.889.46,9.955,1.845,11.044-12.96,6.982-14.364,3.707c-.463-1.081,2.125-12.953.772-16.07-.514-1.184-.346-3.877,1.237-4.867s3.91-4.355,3.91-4.355,4.949-.544,6.385.2" transform="translate(-45.579 -85.348)" fill="#81b44e"/>
      <path id="Path_1241" data-name="Path 1241" d="M30.1,104.367A4.093,4.093,0,0,1,33.27,106.4c.841,1.831,2.87,10,2.87,12.026a12.3,12.3,0,0,1-.247,2.92l-5.3-2.821s-1.188-13.957-.495-14.155" transform="translate(-9.612 -87.353)" fill="#92c65f"/>
      <path id="Path_1242" data-name="Path 1242" d="M127.86,135.817h2.917a.4.4,0,0,0,.379-.6l-2.395-6.579a.945.945,0,0,0-.812-.6h-2.917a.4.4,0,0,0-.379.6l2.395,6.579a.945.945,0,0,0,.812.6" transform="translate(-120.109 -107.172)" fill="#606c5a"/>
      <path id="Path_1243" data-name="Path 1243" d="M47.768,170.4s-.1,1.138-.1,1.386-1.089.545-2.227.545-9.552-4.85-10.344-5.2a17.887,17.887,0,0,0-3.068-.891c-.446-.05-.792-1.287-.545-2.079a2.172,2.172,0,0,1,.577-1.133.413.413,0,0,1,.462.044c.544.346,2.722,2.227,2.722,2.227a48,48,0,0,1,7.127,1.831c2.029.891,4.4,1.98,5.395,3.266" transform="translate(-21.488 -136.408)" fill="#f7b68b"/>
      <path id="Path_1244" data-name="Path 1244" d="M127.882,163.636l2.606-.341-.577,1.133.346,1.732-1.435.247s-.2-.247.05-.346.594-.247.594-.247-.693-.1-.99-.148-.346-.149-.346-.3.3-.247.3-.247-.544-.2-.594-.347-.148-.346-.049-.495-.05-.545.1-.643" transform="translate(-119.914 -136.674)" fill="#ec9568"/>
      <path id="Path_1245" data-name="Path 1245" d="M52.989,14.185s4.377-.448,4.351-2.334-2.2-2.494-1.082-4.091,2.9-2.9-.6-3.626S54.071-.061,51.6,0s-2.752,1.674-5.051,1.927S41.236.614,40.14,3.625s-.727,5.752.718,5.844-.2,1.473-.521,2.5.9,4.731,6.575,2.046,3.388.287,6.077.167" transform="translate(-32.756 0)" fill="#24262e"/>
      <path id="Path_1246" data-name="Path 1246" d="M82.782,77.57a13.825,13.825,0,0,0-.066,2.541c.119,1.16,1.719,1.047.041,2.184a3.712,3.712,0,0,1-4.264-.3,4.277,4.277,0,0,0,.928-2.484c0-1.442-1.131-2.431.557-2.234s2.9-.675,2.8.3" transform="translate(-64.915 -64.532)" fill="#f7b68b"/>
      <path id="Path_1247" data-name="Path 1247" d="M85.458,80.475a15.44,15.44,0,0,0,1.254-2.9c.1-.972-1.117-.1-2.8-.3s-.561.792-.557,2.234c0,.014,0,.027,0,.04a1.684,1.684,0,0,0,2.109.926" transform="translate(-68.845 -64.533)" fill="#ec9568"/>
      <path id="Path_1248" data-name="Path 1248" d="M77.855,26.5s1.474,5.089.352,6.771c-2.187,3.28-2.632,3.387-4.473,3.242s-3.55-2.5-3.959-4.891c-.39-2.278.778-1.983,3.12-2.707,2.553-.79,3-1.41,3-1.41s-.241,1.033-1.91,1.67c-.1.037,2.792,1.188,3.873-2.676" transform="translate(-58.592 -22.182)" fill="#f7b68b"/>
      <path id="Path_1249" data-name="Path 1249" d="M90.939,72.332q-.689-.073-1.363-.108a1.778,1.778,0,0,0,3.488.426c-.687-.132-1.4-.241-2.125-.319" transform="translate(-76.267 -60.45)" fill="#fff"/>
    </g>
  </g>
</svg>
